<svg xmlns="http://www.w3.org/2000/svg" xmlns:xlink="http://www.w3.org/1999/xlink" version="1.1" x="0px" y="0px" viewBox="0 0 70 87.5" style="enable-background:new 0 0 70 70;" xml:space="preserve"><style type="text/css">
	.st0{fill:#010101;}
	.st1{fill:none;stroke:#010101;stroke-width:2;stroke-linecap:round;stroke-linejoin:round;stroke-miterlimit:10;}
</style><g><g><g><g><g><path class="st0" d="M16.8,55c0,0-0.1,0-0.1,0c-0.3,0-0.5-0.2-0.7-0.4L2.2,37.5c-0.3-0.4-0.3-1.1,0.2-1.4L44.5,2.2       C44.7,2.1,45,2,45.2,2c0.3,0,0.5,0.2,0.7,0.4l13.8,17.2c0.3,0.4,0.3,1.1-0.2,1.4L17.4,54.8C17.2,54.9,17,55,16.8,55z M4.4,37       l12.5,15.6L57.5,20L45,4.4L4.4,37z"/></g></g><g><g><g><path class="st0" d="M20.7,51.8c-0.3,0-0.6-0.1-0.8-0.4l-7.1-8.8c-0.3-0.4-0.3-1.1,0.2-1.4c0.4-0.3,1.1-0.3,1.4,0.2l7.1,8.8        c0.3,0.4,0.3,1.1-0.2,1.4C21.2,51.8,21,51.8,20.7,51.8z"/></g></g><g><g><path class="st0" d="M24.5,48.8c-0.3,0-0.6-0.1-0.8-0.4l-5-6.2c-0.3-0.4-0.3-1.1,0.2-1.4c0.4-0.3,1.1-0.3,1.4,0.2l5,6.2        c0.3,0.4,0.3,1.1-0.2,1.4C25,48.7,24.8,48.8,24.5,48.8z"/></g></g><g><g><path class="st0" d="M28.3,45.7c-0.3,0-0.6-0.1-0.8-0.4l-7.1-8.8c-0.3-0.4-0.3-1.1,0.2-1.4c0.4-0.3,1.1-0.3,1.4,0.2l7.1,8.8        c0.3,0.4,0.3,1.1-0.2,1.4C28.8,45.6,28.6,45.7,28.3,45.7z"/></g></g><g><g><path class="st0" d="M32.1,42.7c-0.3,0-0.6-0.1-0.8-0.4l-5-6.2c-0.3-0.4-0.3-1.1,0.2-1.4c0.4-0.3,1.1-0.3,1.4,0.2l5,6.2        c0.3,0.4,0.3,1.1-0.2,1.4C32.6,42.6,32.4,42.7,32.1,42.7z"/></g></g><g><g><path class="st0" d="M35.9,39.6c-0.3,0-0.6-0.1-0.8-0.4l-7.1-8.8c-0.3-0.4-0.3-1.1,0.2-1.4c0.4-0.3,1.1-0.3,1.4,0.2l7.1,8.8        c0.3,0.4,0.3,1.1-0.2,1.4C36.4,39.5,36.2,39.6,35.9,39.6z"/></g></g><g><g><path class="st0" d="M39.8,36.6c-0.3,0-0.6-0.1-0.8-0.4L34,30c-0.3-0.4-0.3-1.1,0.2-1.4c0.4-0.3,1.1-0.3,1.4,0.2l5,6.2        c0.3,0.4,0.3,1.1-0.2,1.4C40.2,36.5,40,36.6,39.8,36.6z"/></g></g><g><g><path class="st0" d="M43.6,33.5c-0.3,0-0.6-0.1-0.8-0.4l-7.1-8.8c-0.3-0.4-0.3-1.1,0.2-1.4c0.4-0.3,1.1-0.3,1.4,0.2l7.1,8.8        c0.3,0.4,0.3,1.1-0.2,1.4C44,33.4,43.8,33.5,43.6,33.5z"/></g></g><g><g><path class="st0" d="M47.4,30.4c-0.3,0-0.6-0.1-0.8-0.4l-5-6.2c-0.3-0.4-0.3-1.1,0.2-1.4c0.4-0.3,1.1-0.3,1.4,0.2l5,6.2        c0.3,0.4,0.3,1.1-0.2,1.4C47.8,30.4,47.6,30.4,47.4,30.4z"/></g></g><g><g><path class="st0" d="M51.2,27.4c-0.3,0-0.6-0.1-0.8-0.4l-7.1-8.8c-0.3-0.4-0.3-1.1,0.2-1.4c0.4-0.3,1.1-0.3,1.4,0.2l7.1,8.8        c0.3,0.4,0.3,1.1-0.2,1.4C51.6,27.3,51.4,27.4,51.2,27.4z"/></g></g><g><g><path class="st0" d="M55,24.3c-0.3,0-0.6-0.1-0.8-0.4l-5-6.2c-0.3-0.4-0.3-1.1,0.2-1.4c0.4-0.3,1.1-0.3,1.4,0.2l5,6.2        c0.3,0.4,0.3,1.1-0.2,1.4C55.4,24.3,55.2,24.3,55,24.3z"/></g></g></g></g><g><g><path class="st0" d="M44.2,15.3c-0.1,0-0.3,0-0.4,0c-1-0.1-1.9-0.6-2.6-1.4c-0.6-0.8-0.9-1.8-0.8-2.8c0.1-1,0.6-1.9,1.4-2.6      c1.6-1.3,4-1.1,5.4,0.6v0c1.3,1.6,1.1,4-0.6,5.4C45.9,15,45.1,15.3,44.2,15.3z M44.2,9.7c-0.4,0-0.8,0.1-1.1,0.4      c-0.4,0.3-0.6,0.7-0.7,1.2c-0.1,0.5,0.1,1,0.4,1.3c0.3,0.4,0.7,0.6,1.2,0.7c0.5,0.1,1-0.1,1.3-0.4c0.8-0.6,0.9-1.8,0.3-2.5l0,0      C45.2,9.9,44.7,9.7,44.2,9.7z"/></g></g></g><g><g><g><path class="st0" d="M67,68H10.5c-0.4,0-0.8-0.3-0.9-0.7c-0.1-0.4,0-0.8,0.3-1.1l56.5-45.3c0.3-0.2,0.7-0.3,1.1-0.1      c0.3,0.2,0.6,0.5,0.6,0.9V67C68,67.6,67.6,68,67,68z M13.3,66H66V23.7L13.3,66z"/></g></g><g><g><path class="st0" d="M58.6,59.6H34.3c-0.4,0-0.8-0.3-0.9-0.7c-0.1-0.4,0-0.8,0.3-1.1L58,38.3c0.3-0.2,0.7-0.3,1.1-0.1      c0.3,0.2,0.6,0.5,0.6,0.9v19.5C59.6,59.2,59.2,59.6,58.6,59.6z M37.1,57.6h20.5V41.2L37.1,57.6z"/></g></g></g></g><text x="0" y="85" fill="#000000" font-size="5px" font-weight="bold" font-family="'Helvetica Neue', Helvetica, Arial-Unicode, Arial, Sans-serif">Created by Vectors Market</text><text x="0" y="90" fill="#000000" font-size="5px" font-weight="bold" font-family="'Helvetica Neue', Helvetica, Arial-Unicode, Arial, Sans-serif">from the Noun Project</text></svg>