<?xml version="1.0" encoding="UTF-8"?>
<svg width="67px" height="66px" viewBox="0 0 67 66" version="1.1" xmlns="http://www.w3.org/2000/svg" xmlns:xlink="http://www.w3.org/1999/xlink">
    <title>icon1</title>
    <g id="Page-1" stroke="none" stroke-width="1" fill="none" fill-rule="evenodd">
        <g id="icon1" fill="#010101" fill-rule="nonzero">
            <g id="Group">
                <g>
                    <g>
                        <path d="M14.8,53 C14.8,53 14.7,53 14.7,53 C14.4,53 14.2,52.8 14,52.6 L0.2,35.5 C-0.1,35.1 -0.1,34.4 0.4,34.1 L42.5,0.2 C42.7,0.1 43,0 43.2,0 C43.5,0 43.7,0.2 43.9,0.4 L57.7,17.6 C58,18 58,18.7 57.5,19 L15.4,52.8 C15.2,52.9 15,53 14.8,53 Z M2.4,35 L14.9,50.6 L55.5,18 L43,2.4 L2.4,35 Z" id="Shape"></path>
                        <g transform="translate(10.000000, 14.000000)" id="Path">
                            <path d="M8.7,35.8 C8.4,35.8 8.1,35.7 7.9,35.4 L0.8,26.6 C0.5,26.2 0.5,25.5 1,25.2 C1.4,24.9 2.1,24.9 2.4,25.4 L9.5,34.2 C9.8,34.6 9.8,35.3 9.3,35.6 C9.2,35.8 9,35.8 8.7,35.8 Z"></path>
                            <path d="M12.5,32.8 C12.2,32.8 11.9,32.7 11.7,32.4 L6.7,26.2 C6.4,25.8 6.4,25.1 6.9,24.8 C7.3,24.5 8,24.5 8.3,25 L13.3,31.2 C13.6,31.6 13.6,32.3 13.1,32.6 C13,32.7 12.8,32.8 12.5,32.8 Z"></path>
                            <path d="M16.3,29.7 C16,29.7 15.7,29.6 15.5,29.3 L8.4,20.5 C8.1,20.1 8.1,19.4 8.6,19.1 C9,18.8 9.7,18.8 10,19.3 L17.1,28.1 C17.4,28.5 17.4,29.2 16.9,29.5 C16.8,29.6 16.6,29.7 16.3,29.7 Z"></path>
                            <path d="M20.1,26.7 C19.8,26.7 19.5,26.6 19.3,26.3 L14.3,20.1 C14,19.7 14,19 14.5,18.7 C14.9,18.4 15.6,18.4 15.9,18.9 L20.9,25.1 C21.2,25.5 21.2,26.2 20.7,26.5 C20.6,26.6 20.4,26.7 20.1,26.7 Z"></path>
                            <path d="M23.9,23.6 C23.6,23.6 23.3,23.5 23.1,23.2 L16,14.4 C15.7,14 15.7,13.3 16.2,13 C16.6,12.7 17.3,12.7 17.6,13.2 L24.7,22 C25,22.4 25,23.1 24.5,23.4 C24.4,23.5 24.2,23.6 23.9,23.6 Z"></path>
                            <path d="M27.8,20.6 C27.5,20.6 27.2,20.5 27,20.2 L22,14 C21.7,13.6 21.7,12.9 22.2,12.6 C22.6,12.3 23.3,12.3 23.6,12.8 L28.6,19 C28.9,19.4 28.9,20.1 28.4,20.4 C28.2,20.5 28,20.6 27.8,20.6 Z"></path>
                            <path d="M31.6,17.5 C31.3,17.5 31,17.4 30.8,17.1 L23.7,8.3 C23.4,7.9 23.4,7.2 23.9,6.9 C24.3,6.6 25,6.6 25.3,7.1 L32.4,15.9 C32.7,16.3 32.7,17 32.2,17.3 C32,17.4 31.8,17.5 31.6,17.5 Z"></path>
                            <path d="M35.4,14.4 C35.1,14.4 34.8,14.3 34.6,14 L29.6,7.8 C29.3,7.4 29.3,6.7 29.8,6.4 C30.2,6.1 30.9,6.1 31.2,6.6 L36.2,12.8 C36.5,13.2 36.5,13.9 36,14.2 C35.8,14.4 35.6,14.4 35.4,14.4 Z"></path>
                            <path d="M39.2,11.4 C38.9,11.4 38.6,11.3 38.4,11 L31.3,2.2 C31,1.8 31,1.1 31.5,0.8 C31.9,0.5 32.6,0.5 32.9,1 L40,9.8 C40.3,10.2 40.3,10.9 39.8,11.2 C39.6,11.3 39.4,11.4 39.2,11.4 Z"></path>
                            <path d="M43,8.3 C42.7,8.3 42.4,8.2 42.2,7.9 L37.2,1.7 C36.9,1.3 36.9,0.6 37.4,0.3 C37.8,3.55271368e-15 38.5,3.55271368e-15 38.8,0.5 L43.8,6.7 C44.1,7.1 44.1,7.8 43.6,8.1 C43.4,8.3 43.2,8.3 43,8.3 Z"></path>
                        </g>
                    </g>
                    <path d="M42.2,13.3 C42.1,13.3 41.9,13.3 41.8,13.3 C40.8,13.2 39.9,12.7 39.2,11.9 C38.6,11.1 38.3,10.1 38.4,9.1 C38.5,8.1 39,7.2 39.8,6.5 C41.4,5.2 43.8,5.4 45.2,7.1 L45.2,7.1 C46.5,8.7 46.3,11.1 44.6,12.5 C43.9,13 43.1,13.3 42.2,13.3 Z M42.2,7.7 C41.8,7.7 41.4,7.8 41.1,8.1 C40.7,8.4 40.5,8.8 40.4,9.3 C40.3,9.8 40.5,10.3 40.8,10.6 C41.1,11 41.5,11.2 42,11.3 C42.5,11.4 43,11.2 43.3,10.9 C44.1,10.3 44.2,9.1 43.6,8.4 L43.6,8.4 C43.2,7.9 42.7,7.7 42.2,7.7 Z" id="Shape"></path>
                </g>
                <g transform="translate(7.000000, 18.000000)" id="Shape">
                    <path d="M58,48 L1.5,48 C1.1,48 0.7,47.7 0.6,47.3 C0.5,46.9 0.6,46.5 0.9,46.2 L57.4,0.9 C57.7,0.7 58.1,0.6 58.5,0.8 C58.8,1 59.1,1.3 59.1,1.7 L59.1,47 C59,47.6 58.6,48 58,48 Z M4.3,46 L57,46 L57,3.7 L4.3,46 Z"></path>
                    <path d="M49.6,39.6 L25.3,39.6 C24.9,39.6 24.5,39.3 24.4,38.9 C24.3,38.5 24.4,38.1 24.7,37.8 L49,18.3 C49.3,18.1 49.7,18 50.1,18.2 C50.4,18.4 50.7,18.7 50.7,19.1 L50.7,38.6 C50.6,39.2 50.2,39.6 49.6,39.6 Z M28.1,37.6 L48.6,37.6 L48.6,21.2 L28.1,37.6 Z"></path>
                </g>
            </g>
        </g>
    </g>
</svg>